HIERARCHY
ROOT Hips
{
	OFFSET 0.00000 0.00000 0.00000
	CHANNELS 6 Xposition Yposition Zposition Zrotation Yrotation Xrotation 
	JOINT LHipJoint
	{
		OFFSET 0 0 0
		CHANNELS 3 Zrotation Yrotation Xrotation
		JOINT LeftUpLeg
		{
			OFFSET 1.56857 -1.73443 1.15205
			CHANNELS 3 Zrotation Yrotation Xrotation
			JOINT LeftLeg
			{
				OFFSET 2.39362 -6.57643 0.00000
				CHANNELS 3 Zrotation Yrotation Xrotation
				JOINT LeftFoot
				{
					OFFSET 2.50952 -6.89485 0.00000
					CHANNELS 3 Zrotation Yrotation Xrotation
					JOINT LeftToeBase
					{
						OFFSET 0.17171 -0.47178 1.88682
						CHANNELS 3 Zrotation Yrotation Xrotation
						End Site
						{
							OFFSET 0.00000 -0.00000 0.98146
						}
					}
				}
			}
		}
	}
	JOINT RHipJoint
	{
		OFFSET 0 0 0
		CHANNELS 3 Zrotation Yrotation Xrotation
		JOINT RightUpLeg
		{
			OFFSET -1.28153 -1.73443 1.15205
			CHANNELS 3 Zrotation Yrotation Xrotation
			JOINT RightLeg
			{
				OFFSET -2.26861 -6.23296 0.00000
				CHANNELS 3 Zrotation Yrotation Xrotation
				JOINT RightFoot
				{
					OFFSET -2.54143 -6.98254 0.00000
					CHANNELS 3 Zrotation Yrotation Xrotation
					JOINT RightToeBase
					{
						OFFSET -0.23309 -0.64041 1.93119
						CHANNELS 3 Zrotation Yrotation Xrotation
						End Site
						{
							OFFSET -0.00000 -0.00000 1.02013
						}
					}
				}
			}
		}
	}
	JOINT LowerBack
	{
		OFFSET 0 0 0
		CHANNELS 3 Zrotation Yrotation Xrotation
		JOINT Spine
		{
			OFFSET -0.07096 2.10460 -0.27878
			CHANNELS 3 Zrotation Yrotation Xrotation
			JOINT Spine1
			{
				OFFSET -0.00826 2.13662 -0.08279
				CHANNELS 3 Zrotation Yrotation Xrotation
				JOINT Neck
				{
					OFFSET 0 0 0
					CHANNELS 3 Zrotation Yrotation Xrotation
					JOINT Neck1
					{
						OFFSET 0.03239 1.77799 0.24435
						CHANNELS 3 Zrotation Yrotation Xrotation
						JOINT Head
						{
							OFFSET 0.01026 1.74194 -0.49664
							CHANNELS 3 Zrotation Yrotation Xrotation
							End Site
							{
								OFFSET 0.00170 1.83057 -0.19653
							}
						}
					}
				}
				JOINT LeftShoulder
				{
					OFFSET 0 0 0
					CHANNELS 3 Zrotation Yrotation Xrotation
					JOINT LeftArm
					{
						OFFSET 3.19178 1.35907 -0.31412
						CHANNELS 3 Zrotation Yrotation Xrotation
						JOINT LeftForeArm
						{
							OFFSET 4.85247 -0.00000 -0.00000
							CHANNELS 3 Zrotation Yrotation Xrotation
							JOINT LeftHand
							{
								OFFSET 3.55584 -0.00000 0.00000
								CHANNELS 3 Zrotation Yrotation Xrotation
								JOINT LeftFingerBase
								{
									OFFSET 0 0 0
									CHANNELS 3 Zrotation Yrotation Xrotation
									JOINT LeftHandIndex1
									{
										OFFSET 0.69320 -0.00000 0.00000
										CHANNELS 3 Zrotation Yrotation Xrotation
										End Site
										{
											OFFSET 0.55888 -0.00000 0.00000
										}
									}
								}
								JOINT LThumb
								{
									OFFSET 0 0 0
									CHANNELS 3 Zrotation Yrotation Xrotation
									End Site
									{
										OFFSET 0.56741 -0.00000 0.56741
									}
								}
							}
						}
					}
				}
				JOINT RightShoulder
				{
					OFFSET 0 0 0
					CHANNELS 3 Zrotation Yrotation Xrotation
					JOINT RightArm
					{
						OFFSET -3.28999 1.24191 -0.26899
						CHANNELS 3 Zrotation Yrotation Xrotation
						JOINT RightForeArm
						{
							OFFSET -4.64462 -0.00000 0.00000
							CHANNELS 3 Zrotation Yrotation Xrotation
							JOINT RightHand
							{
								OFFSET -3.40703 -0.00000 0.00000
								CHANNELS 3 Zrotation Yrotation Xrotation
								JOINT RightFingerBase
								{
									OFFSET 0 0 0
									CHANNELS 3 Zrotation Yrotation Xrotation
									JOINT RightHandIndex1
									{
										OFFSET -0.61958 -0.00000 0.00000
										CHANNELS 3 Zrotation Yrotation Xrotation
										End Site
										{
											OFFSET -0.49952 -0.00000 0.00000
										}
									}
								}
								JOINT RThumb
								{
									OFFSET 0 0 0
									CHANNELS 3 Zrotation Yrotation Xrotation
									End Site
									{
										OFFSET -0.50715 -0.00000 0.50715
									}
								}
							}
						}
					}
				}
			}
		}
	}
}
MOTION
Frames: 6
Frame Time: .0083333
46.2017 16.7811 2.3220 9.7044 -17.5308 -4.7261 0.0000 0.0000 0.0000 -27.7223 13.8008 19.3624 1.8378 8.5197 24.3040 -0.0197 4.4801 -5.5948 0.0871 -1.9038 -5.2398 0.0000 0.0000 0.0000 15.8469 -14.2531 -14.3004 -0.3667 -3.8899 10.7670 -0.3441 0.1714 -11.0223 -3.2480 -11.0860 32.5705 -10.6596 -3.5368 3.7687 1.7853 -5.1884 -0.8194 8.0908 -2.4553 -1.8678 3.6442 -0.4751 -26.7964 -1.2837 -1.7319 16.5308 -1.3080 -0.7174 9.5481 -0.0000 -0.0000 0.0000 -87.4292 -0.7336 58.9848 23.9191 -35.0786 -7.6600 -0.0000 0.0000 -4.0795 12.2780 -21.1988 -4.4997 -7.1250 0.0000 -0.0000 -10.3864 8.6154 8.8641 -0.0000 -0.0000 0.0000 84.3403 -21.8398 13.9238 -20.8990 31.7103 -5.9968 0.0000 -0.0000 -1.6944 -7.2597 -34.6778 4.1455 7.1250 -0.0000 -0.0000 30.9848 -62.1762 -13.6395
46.1546 16.7865 2.4391 9.4724 -17.7196 -4.7740 0.0000 0.0000 0.0000 -27.1220 13.8145 18.9065 2.0762 9.0230 25.8672 -0.0456 4.6350 -4.5388 0.0105 -0.6606 -1.8152 0.0000 0.0000 0.0000 16.0874 -13.5686 -12.7702 -0.2947 -3.4908 9.6483 -0.3482 -0.4143 -11.3039 -3.3241 -11.2021 32.9645 -10.4219 -3.5061 3.8756 1.8538 -5.1474 -0.8400 8.0390 -2.4304 -1.9720 3.5222 -0.5151 -26.7413 -1.2041 -1.7571 16.6036 -1.2646 -0.7264 9.5661 -0.0000 -0.0000 0.0000 -87.4712 -0.0545 59.1880 23.9168 -35.0762 -7.6587 -0.0000 0.0000 -4.3221 12.1712 -21.0260 -4.4250 -7.1250 0.0000 -0.0000 -10.4498 8.7992 8.8813 -0.0000 -0.0000 0.0000 84.3435 -21.7998 14.4280 -21.3329 32.2149 -6.2265 0.0000 -0.0000 -2.2415 -7.6129 -34.6297 4.3435 7.1250 -0.0000 -0.0000 30.5717 -62.2250 -13.4739
46.1110 16.7903 2.5541 9.3239 -17.8898 -4.7850 0.0000 0.0000 0.0000 -26.5792 13.9161 18.3195 2.3181 9.4994 27.3704 -0.0682 4.8762 -3.4151 0.0009 0.1916 0.5264 0.0000 0.0000 0.0000 16.1353 -14.5477 -12.8917 -0.3364 -3.7274 10.3110 -0.3730 0.9293 -11.2480 -3.3595 -11.2554 33.1462 -10.2195 -3.4829 3.9478 1.8910 -5.1157 -0.8906 7.9723 -2.4081 -2.0860 3.5182 -0.4795 -26.6501 -1.2988 -1.6826 16.7340 -1.2867 -0.7021 9.5982 -0.0000 0.0000 0.0000 -87.5501 0.5647 59.3447 23.8085 -34.9611 -7.5965 -0.0000 0.0000 -4.6277 11.9962 -20.9946 -4.3536 -7.1250 0.0000 -0.0000 -10.5600 8.8489 8.9676 -0.0000 0.0000 0.0000 84.3572 -21.7925 14.8244 -21.7742 32.7209 -6.4634 0.0000 -0.0000 -2.5705 -7.6671 -34.4318 4.3528 7.1250 -0.0000 -0.0000 30.3058 -62.0710 -13.2344
46.0643 16.7925 2.6681 8.9652 -18.1584 -4.7076 0.0000 0.0000 0.0000 -25.7570 14.0918 17.6742 2.5618 9.9494 28.8131 -0.0896 5.3026 -2.0923 0.0095 -0.6283 -1.7266 0.0000 0.0000 0.0000 16.6449 -12.9874 -11.0423 -0.2518 -3.2288 8.9164 -0.3947 -0.2858 -11.9753 -3.3848 -11.2933 33.2757 -9.7789 -3.4542 3.9304 1.9403 -5.0532 -0.9201 7.7747 -2.3776 -2.1517 3.1444 -0.6106 -26.6988 -1.0752 -1.7755 16.9197 -1.1644 -0.7400 9.6759 -0.0000 0.0000 0.0000 -87.4960 1.2181 59.5583 23.7697 -34.9197 -7.5743 -0.0000 0.0000 -4.9075 11.9983 -21.0519 -4.3656 -7.1250 0.0000 -0.0000 -10.5599 8.7915 8.9799 -0.0000 0.0000 0.0000 84.4411 -21.7412 15.1161 -22.5435 33.5858 -6.8841 0.0000 -0.0000 -4.0268 -6.8726 -36.3458 4.0858 7.1250 -0.0000 -0.0000 33.2725 -63.4612 -15.7694
46.0101 16.7960 2.7810 8.4751 -18.5239 -4.7198 0.0000 0.0000 0.0000 -24.6646 14.4121 17.1294 2.8114 10.3833 30.2270 -0.1092 6.0104 -0.7234 0.1433 -2.4398 -6.7229 0.0000 0.0000 0.0000 17.0717 -14.3414 -11.2720 -0.3007 -3.5261 9.7470 -0.4111 1.4089 -11.7034 -3.3160 -11.1899 32.9229 -9.3111 -3.4079 4.0149 2.0510 -4.9725 -0.9003 7.6321 -2.3403 -2.2225 3.0173 -0.6904 -26.6160 -1.0242 -1.8455 16.9303 -1.1362 -0.7747 9.6658 -0.0000 -0.0000 0.0000 -87.4161 1.9023 59.7154 23.8133 -34.9662 -7.5993 -0.0000 0.0000 -5.0519 12.2033 -20.8708 -4.4058 -7.1250 0.0000 -0.0000 -10.4258 8.9506 8.8281 -0.0000 -0.0000 0.0000 84.4379 -21.6541 15.6691 -23.0195 34.1101 -7.1492 0.0000 -0.0000 -4.5225 -6.9895 -36.4575 4.1667 7.1250 -0.0000 -0.0000 33.2873 -63.5837 -15.8721
45.9680 16.7998 2.8937 7.7610 -18.5867 -4.8184 0.0000 0.0000 0.0000 -23.4093 14.4798 16.7731 3.0858 10.8326 31.7175 -0.0841 6.1688 1.3906 0.0684 -1.6869 -4.6412 0.0000 0.0000 0.0000 17.8424 -13.5474 -9.5185 -0.2410 -3.1590 8.7218 -0.4408 0.6039 -12.3454 -3.1343 -10.9094 31.9750 -8.4667 -3.4451 4.3768 2.1712 -5.0053 -0.8513 7.3097 -2.3594 -2.4257 2.7747 -0.7134 -26.6210 -0.8628 -1.8246 17.0891 -1.0385 -0.7595 9.7280 -0.0000 -0.0000 0.0000 -87.4644 2.4681 59.5865 23.6764 -34.8202 -7.5210 -0.0000 0.0000 -4.9661 12.2269 -20.8409 -4.4086 -7.1250 0.0000 -0.0000 -10.4100 8.9779 8.8085 -0.0000 -0.0000 0.0000 84.3590 -21.5866 16.3845 -23.3667 34.4874 -7.3449 0.0000 -0.0000 -4.4476 -7.2644 -35.6394 4.2479 7.1250 -0.0000 -0.0000 32.0451 -62.9816 -14.7659
